Coordinates
version=1
nRows=21
nColumns=38
inDegrees=no

Units are S.I. units (second, meters, Newtons, ...)
If the header above contains a line with 'inDegrees', this indicates whether rotational values are in degrees (yes) or radians (no).

endheader
time	pelvis_tilt	pelvis_list	pelvis_rotation	pelvis_tx	pelvis_ty	pelvis_tz	hip_flexion_r	hip_adduction_r	hip_rotation_r	knee_angle_r	ankle_angle_r	subtalar_angle_r	mtp_angle_r	hip_flexion_l	hip_adduction_l	hip_rotation_l	knee_angle_l	ankle_angle_l	subtalar_angle_l	mtp_angle_l	lumbar_extension	lumbar_bending	lumbar_rotation	arm_flex_r	arm_add_r	arm_rot_r	elbow_flex_r	pro_sup_r	wrist_flex_r	wrist_dev_r	arm_flex_l	arm_add_l	arm_rot_l	elbow_flex_l	pro_sup_l	wrist_flex_l	wrist_dev_l
4.51	-2.90814	1.10466	-2.1622	0.811143	1.36981	0.98676	-0.523599	-0.243313	-0.134871	0.176084	0.00590241	0	0	-0.214795	0.111419	-0.480127	0.265793	-0.174092	0	0	-0.526055	-0.310135	0.289443	0.722906	-0.298208	0.44977	1.1411	1.5708	0	0	0.644694	-0.285225	0.103167	1.2461	0.952332	0	0
4.52	-2.90774	1.11024	-2.16258	0.810578	1.37606	0.985447	-0.523599	-0.2436	-0.139152	0.179306	0.0122261	0	0	-0.205137	0.113136	-0.483529	0.232623	-0.167338	0	0	-0.522234	-0.307067	0.289933	0.727004	-0.298453	0.45114	1.13961	1.5708	0	0	0.646181	-0.283714	0.101047	1.24647	0.952316	0	0
4.53	-2.90699	1.11573	-2.16319	0.809982	1.38233	0.984043	-0.523599	-0.244075	-0.143659	0.182743	0.0182887	0	0	-0.196004	0.11538	-0.485601	0.199102	-0.160299	0	0	-0.518304	-0.30413	0.290444	0.731006	-0.298959	0.4523	1.13843	1.5708	0	0	0.647679	-0.282106	0.0990731	1.24713	0.952625	0	0
4.54	-2.9061	1.12101	-2.16387	0.809376	1.38857	0.982576	-0.523599	-0.244774	-0.148029	0.186526	0.0240867	0	0	-0.187621	0.118089	-0.486185	0.165512	-0.15233	0	0	-0.514543	-0.301384	0.290838	0.734926	-0.29944	0.453098	1.13739	1.5708	0	0	0.649274	-0.280494	0.0967091	1.24816	0.953101	0	0
4.55	-2.90508	1.12605	-2.16469	0.8087	1.39489	0.981026	-0.523599	-0.245816	-0.153419	0.190753	0.0314912	0	0	-0.180146	0.121284	-0.485269	0.131705	-0.144081	0	0	-0.510914	-0.298885	0.291105	0.738319	-0.299904	0.453122	1.13731	1.5708	0	0	0.65066	-0.278958	0.0941453	1.25024	0.953616	0	0
4.56	-2.90338	1.13094	-2.16613	0.808003	1.40126	0.979374	-0.523599	-0.247351	-0.159961	0.195271	0.0405587	0	0	-0.173339	0.124903	-0.482964	0.0980381	-0.136024	0	0	-0.507107	-0.29683	0.291248	0.741697	-0.300452	0.452815	1.13733	1.5708	0	0	0.651946	-0.277617	0.0919235	1.25301	0.954136	0	0
4.57	-2.90037	1.13548	-2.16889	0.807321	1.40767	0.977647	-0.523599	-0.249629	-0.166841	0.200076	0.0498383	0	0	-0.167103	0.129232	-0.479899	0.0647627	-0.129997	0	0	-0.503187	-0.295617	0.291368	0.744828	-0.301023	0.452245	1.13739	1.5708	0	0	0.653405	-0.27645	0.090207	1.25555	0.954735	0	0
4.58	-2.89687	1.13978	-2.17218	0.806661	1.41412	0.975851	-0.523599	-0.25227	-0.174331	0.20537	0.0590606	0	0	-0.161529	0.133629	-0.475695	0.032209	-0.125622	0	0	-0.499262	-0.294887	0.291472	0.747691	-0.301621	0.45164	1.1378	1.5708	0	0	0.654874	-0.275712	0.0889302	1.25804	0.955348	0	0
4.59	-2.86124	1.14403	-2.19641	0.805854	1.42222	0.973551	-0.523599	-0.260883	-0.172303	0.213663	0.0689665	0	0	-0.135871	0.141536	-0.477916	0.0311715	-0.117468	0	0	-0.483993	-0.304513	0.283807	0.734505	-0.302641	0.449057	1.13449	1.5708	0	0	0.653128	-0.271623	0.0867201	1.25925	0.955927	0	0
4.6	-2.86801	1.14727	-2.19056	0.805106	1.42743	0.971833	-0.523599	-0.260819	-0.184351	0.221586	0.0774228	0	0	-0.128782	0.13895	-0.475896	0.0127861	-0.109671	0	0	-0.486679	-0.301292	0.284094	0.743157	-0.303856	0.447715	1.13743	1.5708	0	0	0.658044	-0.272357	0.0863296	1.26355	0.956599	0	0
4.61	-2.86257	1.1508	-2.19328	0.804703	1.43372	0.969846	-0.523599	-0.263227	-0.19291	0.229284	0.087484	0	0	-0.116712	0.139185	-0.474058	0.00158938	-0.10228	0	0	-0.484507	-0.301962	0.281887	0.745737	-0.305184	0.445647	1.13988	1.5708	0	0	0.661708	-0.271941	0.0856416	1.26754	0.956998	0	0
4.62	-2.85825	1.1536	-2.19567	0.804162	1.43989	0.967878	-0.523599	-0.266174	-0.202876	0.237671	0.0974724	0	0	-0.102738	0.137455	-0.474099	0	-0.0937388	0	0	-0.483308	-0.302963	0.280299	0.748913	-0.306646	0.443581	1.14284	1.5708	0	0	0.665802	-0.27172	0.0856411	1.27161	0.95727	0	0
4.63	-2.85428	1.15607	-2.19856	0.803476	1.4462	0.965917	-0.523599	-0.26965	-0.212348	0.246627	0.107407	0	0	-0.0898329	0.135893	-0.475957	0	-0.0866756	0	0	-0.481747	-0.304167	0.279652	0.751242	-0.308068	0.441261	1.14607	1.5708	0	0	0.669335	-0.271314	0.0858905	1.2754	0.957616	0	0
4.64	-2.85111	1.15809	-2.20158	0.802926	1.45253	0.963974	-0.523599	-0.273792	-0.221528	0.256675	0.117476	0	0	-0.0788495	0.135009	-0.479317	0	-0.0811861	0	0	-0.480133	-0.305558	0.27982	0.752624	-0.309221	0.438107	1.14942	1.5708	0	0	0.672178	-0.270896	0.0859541	1.27949	0.958159	0	0
4.65	-2.83075	1.16178	-2.21775	0.80178	1.4601	0.961707	-0.523599	-0.280033	-0.222885	0.26304	0.127498	0	0	-0.0635522	0.140182	-0.48688	0	-0.0724865	0	0	-0.470297	-0.311016	0.276903	0.746433	-0.309543	0.434105	1.15106	1.5708	0	0	0.67231	-0.26963	0.085102	1.28274	0.958661	0	0
4.66	-2.84759	1.16148	-2.20847	0.801508	1.46589	0.960124	-0.523599	-0.284321	-0.239038	0.277688	0.137242	0	0	-0.0626789	0.13443	-0.486781	0	-0.0720864	0	0	-0.47542	-0.308236	0.283795	0.75383	-0.311666	0.432024	1.15545	1.5708	0	0	0.674328	-0.27006	0.0851021	1.28903	0.958791	0	0
4.67	-2.81376	1.16801	-2.23657	0.801134	1.47476	0.957352	-0.523599	-0.291531	-0.230532	0.278019	0.14631	0	0	-0.045578	0.143798	-0.493213	0	-0.0609801	0	0	-0.455983	-0.316163	0.280851	0.740379	-0.311359	0.427083	1.15652	1.5708	0	0	0.670214	-0.268091	0.0827558	1.29201	0.958551	0	0
4.68	-2.8498	1.16622	-2.21352	0.800879	1.48046	0.95616	-0.523599	-0.294924	-0.251301	0.298154	0.155776	0	0	-0.054011	0.133047	-0.48937	0	-0.0687131	0	0	-0.466539	-0.308374	0.293136	0.751197	-0.314903	0.425047	1.16282	1.5708	0	0	0.671489	-0.268286	0.0825265	1.30011	0.958296	0	0
4.69	-2.85285	1.16838	-2.21512	0.800241	1.48801	0.95424	-0.523599	-0.300658	-0.25762	0.309701	0.165252	0	0	-0.0529883	0.132352	-0.487791	0	-0.0698802	0	0	-0.461394	-0.307827	0.29906	0.748815	-0.316907	0.421786	1.16696	1.5708	0	0	0.669113	-0.266982	0.0812297	1.30573	0.95801	0	0
4.7	-2.85493	1.17154	-2.21824	0.799736	1.49643	0.952236	-0.523599	-0.30599	-0.260869	0.31914	0.173119	0	0	-0.0526165	0.131754	-0.483832	0	-0.0708109	0	0	-0.453552	-0.307085	0.305752	0.744533	-0.318168	0.417544	1.1709	1.5708	0	0	0.665226	-0.265946	0.0801782	1.31149	0.957787	0	0
4.71	-2.83441	1.17622	-2.23948	0.799419	1.50568	0.949801	-0.523599	-0.314216	-0.253389	0.324735	0.178484	0	0	-0.0474243	0.139097	-0.481076	0	-0.0716472	0	0	-0.435491	-0.312281	0.3092	0.730423	-0.318251	0.411097	1.17336	1.5708	0	0	0.657751	-0.263957	0.0789064	1.3163	0.957401	0	0
